<svg xmlns="http://www.w3.org/2000/svg" version="1.1" xmlns:xlink="http://www.w3.org/1999/xlink" xmlns:svgjs="http://svgjs.dev/svgjs" width="1500" height="1500" viewBox="0 0 1500 1500"><rect width="1500" height="1500" fill="#ffffff"></rect><g transform="matrix(0.6666666666666666,0,0,0.6666666666666666,249.39393939393938,438.5856950067477)"><svg viewBox="0 0 396 247" data-background-color="#0a1627" preserveAspectRatio="xMidYMid meet" height="935" width="1500" xmlns="http://www.w3.org/2000/svg" xmlns:xlink="http://www.w3.org/1999/xlink"><g id="tight-bounds" transform="matrix(1,0,0,1,0.2400000000000091,-0.09999999999999432)"><svg viewBox="0 0 395.52 247.2" height="247.2" width="395.52"><g><svg></svg></g><g><svg viewBox="0 0 395.52 247.2" height="247.2" width="395.52"><g transform="matrix(1,0,0,1,75.54432,93.56534799758074)"><svg viewBox="0 0 244.43135999999998 60.069304004838486" height="60.069304004838486" width="244.43135999999998"><g><svg viewBox="0 0 376.90033480045844 92.62371567483872" height="60.069304004838486" width="244.43135999999998"><g><rect width="6.044068210731933" height="80.42580232258064" x="260.2535280909213" y="6.098956676129042" fill="#000000" opacity="1" stroke-width="0" stroke="transparent" fill-opacity="1" class="rect-qz-0" data-fill-palette-color="primary" rx="1%" id="qz-0" data-palette-color="#fe0039"></rect></g><g transform="matrix(1,0,0,1,0,12.801106869677426)"><svg viewBox="0 0 244.43135999999998 67.02150193548387" height="67.02150193548387" width="244.43135999999998"><g id="textblocktransform"><svg viewBox="0 0 244.43135999999998 67.02150193548387" height="67.02150193548387" width="244.43135999999998" id="textblock"><g><svg viewBox="0 0 244.43135999999998 67.02150193548387" height="67.02150193548387" width="244.43135999999998"><g transform="matrix(1,0,0,1,0,0)"><svg width="244.43135999999998" viewBox="1.1 -33.75 123.99000000000001 34" height="67.02150193548387" data-palette-color="#fe0039"><path d="M5.05-17.1L2.65-17.3Q1.95-17.4 1.53-17.9 1.1-18.4 1.1-19.1L1.1-19.1Q1.1-19.45 1.28-19.85 1.45-20.25 1.8-20.55L1.8-20.55Q2.45-21.2 5.3-21.2L5.3-21.2Q5.7-23.15 5.7-25.15L5.7-25.15Q5.7-25.9 5.65-26.45 5.6-27 5.6-27.3L5.6-27.3Q5.6-28.4 6.43-28.95 7.25-29.5 8.3-29.5L8.3-29.5Q9.6-29.5 10.08-28.85 10.55-28.2 10.55-26.45L10.55-26.45Q10.55-23.85 10.1-21.35L10.1-21.35Q10.9-21.35 12.3-21.45L12.3-21.45Q14.2-21.55 15.05-21.55L15.05-21.55Q15.9-21.55 16.53-21.13 17.15-20.7 17.15-19.95L17.15-19.95Q17.15-18 15.4-17.65L15.4-17.65Q13.55-17.2 9.65-17.1L9.65-17.1Q9.5-15.15 9.5-12.85L9.5-12.85Q9.5-9.25 9.95-6.95L9.95-6.95Q10.25-5.35 10.98-4.63 11.7-3.9 13.15-3.9L13.15-3.9Q14-3.9 14.9-4.35L14.9-4.35Q15.5-4.7 16-4.7L16-4.7Q16.7-4.7 17.03-4.25 17.35-3.8 17.35-3.05L17.35-3.05Q17.35-1.65 15.85-0.73 14.35 0.2 12 0.2L12 0.2Q10.55 0.2 9.08-0.5 7.6-1.2 6.6-2.25L6.6-2.25Q6.45-2.4 6.05-3.4 5.65-4.4 5.35-5.55L5.35-5.55Q4.85-7.9 4.85-12.15L4.85-12.15Q4.85-14 5.05-17.1L5.05-17.1ZM28.85-2Q28.85-1.15 28.2-0.5 27.55 0.15 26.6 0.15L26.6 0.15Q25.1 0.15 24.4-0.43 23.7-1 23.7-2.55L23.7-2.55Q23.7-4.4 23.6-7.4L23.6-7.4Q23.5-9.9 23.5-11.6L23.5-11.6Q23.5-12.4 23.6-13.7L23.6-13.7Q23.7-14.9 23.7-15.5L23.7-15.5Q23.55-16.45 22.95-17.07 22.35-17.7 21.4-17.7L21.4-17.7Q20.95-17.7 20.65-18.13 20.35-18.55 20.35-19L20.35-19Q20.35-20.15 21.27-20.75 22.2-21.35 23.5-21.35L23.5-21.35Q26.2-21.35 27.25-18.15L27.25-18.15Q28.55-19.65 30.22-20.58 31.9-21.5 33.45-21.5L33.45-21.5Q35.3-21.5 36.82-20.5 38.35-19.5 38.35-17.8L38.35-17.8Q38.35-16.85 37.52-15.85 36.7-14.85 35.85-14.85L35.85-14.85Q35.4-14.85 35.07-15.08 34.75-15.3 34.3-15.75L34.3-15.75Q33.8-16.25 33.45-16.48 33.1-16.7 32.65-16.7L32.65-16.7Q31.85-16.7 31.15-16.45 30.45-16.2 30.2-15.85L30.2-15.85Q29.4-14.6 29.02-13.6 28.65-12.6 28.65-11.45L28.65-11.45Q28.65-10.6 28.6-10.1L28.6-10.1 28.55-7.25Q28.55-6.6 28.6-5.8 28.65-5 28.7-4.6L28.7-4.6Q28.85-3.25 28.85-2L28.85-2ZM64.05-2.4Q64.05-1.3 62.87-0.55 61.7 0.2 60.7 0.2L60.7 0.2Q58.8 0.2 57.67-0.28 56.55-0.75 55.59-2.05L55.59-2.05Q54.3-0.9 52.05-0.33 49.8 0.25 47.9 0.25L47.9 0.25Q44.8 0.25 42.8-1.43 40.8-3.1 40.8-6.35L40.8-6.35Q40.8-7.75 41.55-8.93 42.3-10.1 43.6-11L43.6-11Q45.05-11.95 46.9-12.48 48.75-13 50.75-13L50.75-13Q51.8-13 53.25-12.6 54.7-12.2 55.5-11.75L55.5-11.75 55.5-12.55Q55.5-15.25 54.2-16.28 52.9-17.3 50-17.3L50-17.3Q49.15-17.3 48.32-16.95 47.5-16.6 46.45-16L46.45-16Q45.05-15.25 43.8-15.25L43.8-15.25Q43.35-15.25 42.95-15.88 42.55-16.5 42.55-17L42.55-17Q42.55-18.45 43.92-19.5 45.3-20.55 47.2-21.08 49.1-21.6 50.6-21.6L50.6-21.6Q52.1-21.6 54.05-21.03 56-20.45 57.25-19.45L57.25-19.45Q58.75-18.15 59.57-16.43 60.4-14.7 60.4-12.65L60.4-12.65Q60.4-12 60.3-10.7L60.3-10.7Q60.2-9.3 60.2-8.3L60.2-8.3Q60.2-7.85 60.1-6.95L60.1-6.95Q60-5.85 60-5.2L60-5.2Q60-4.6 60.45-4.17 60.9-3.75 61.5-3.75L61.5-3.75 62.9-3.8Q63.45-3.8 63.75-3.4 64.05-3 64.05-2.4L64.05-2.4ZM47.95-3.7Q50.1-3.7 51.55-4.15 53-4.6 55.05-5.8L55.05-5.8Q55.25-6.65 55.3-8.05L55.3-8.05Q52.55-9.35 50.75-9.35L50.75-9.35Q48.7-9.35 47.1-8.6 45.5-7.85 45.5-5.95L45.5-5.95Q45.5-5 46.3-4.35 47.1-3.7 47.95-3.7L47.95-3.7ZM78.94-12.85Q79.09-13.25 80.02-15.75 80.94-18.25 81.74-19.55L81.74-19.55Q83.04-21.6 84.04-21.6L84.04-21.6Q85.44-21.6 86.19-21.08 86.94-20.55 86.94-19.6L86.94-19.6Q86.94-19.15 86.57-18.35 86.19-17.55 86.14-17.4L86.14-17.4Q84.14-13 82.54-7.95L82.54-7.95 81.49-4.05Q80.89-2.15 79.44-0.98 77.99 0.2 76.04 0.2L76.04 0.2Q74.29 0.2 72.79-1.4L72.79-1.4Q71.89-2.8 70.92-4.95 69.94-7.1 69.24-9.15L69.24-9.15 67.49-14.4Q66.94-15.95 66.62-17.05 66.29-18.15 66.29-19.05L66.29-19.05Q66.24-20.1 66.89-20.75 67.54-21.4 68.69-21.4L68.69-21.4Q69.99-21.4 70.54-20.88 71.09-20.35 71.54-19.25L71.54-19.25Q71.74-18.1 72.64-14.55L72.64-14.55 72.99-13.15Q73.44-11.45 74.14-9.7 74.84-7.95 75.54-6.35L75.54-6.35Q75.44-6.6 76.24-4.7L76.24-4.7Q76.74-6.15 77.39-8.25L77.39-8.25 78.94-12.85ZM90.09-10.6Q90.09-12.5 90.79-14.43 91.49-16.35 92.64-17.95L92.64-17.95Q93.79-19.55 96.29-20.58 98.79-21.6 100.74-21.6L100.74-21.6Q102.74-21.6 104.82-21.05 106.89-20.5 107.69-19.35L107.69-19.35Q109.54-16.75 109.54-14.25L109.54-14.25Q109.54-12.9 108.97-11.95 108.39-11 107.34-9.9L107.34-9.9Q106.49-9 104.67-8.7 102.84-8.4 101.04-8.4L101.04-8.4Q99.89-8.4 98.24-8.63 96.59-8.85 95.04-9.2L95.04-9.2Q95.14-8.2 95.54-7.25 95.94-6.3 96.49-5.8L96.49-5.8Q97.49-4.85 98.57-4.6 99.64-4.35 101.34-4.35L101.34-4.35Q103.14-4.35 104.69-4.95L104.69-4.95Q105.94-5.4 106.74-5.4L106.74-5.4Q107.69-5.4 108.19-4.83 108.69-4.25 108.69-3.35L108.69-3.35Q108.69-2.1 107.24-1.3 105.79-0.5 103.92-0.13 102.04 0.25 100.89 0.25L100.89 0.25Q98.54 0.25 96.34-0.6 94.14-1.45 92.69-3L92.69-3Q91.49-4.4 90.79-6.38 90.09-8.35 90.09-10.6L90.09-10.6ZM100.99-17.35Q99.89-17.35 98.79-16.93 97.69-16.5 96.99-15.75L96.99-15.75Q96.09-14.8 95.77-14.23 95.44-13.65 95.34-12.65L95.34-12.65Q96.59-12.25 100.54-12.25L100.54-12.25Q102.69-12.25 103.87-12.9 105.04-13.55 105.04-14.6L105.04-14.6Q105.04-15.65 103.74-16.5 102.44-17.35 100.99-17.35L100.99-17.35ZM119.94-7.75Q119.94-5.85 120.51-4.83 121.09-3.8 121.99-3.8L121.99-3.8Q122.49-3.8 122.94-3.88 123.39-3.95 123.84-3.95L123.84-3.95Q124.34-3.95 124.71-3.45 125.09-2.95 125.09-2.35L125.09-2.35Q125.09-1.15 123.96-0.48 122.84 0.2 120.94 0.2L120.94 0.2Q119.59 0.2 118.21-0.63 116.84-1.45 115.94-3.23 115.04-5 115.04-7.65L115.04-7.65Q115.04-13.35 115.24-17.3L115.24-17.3Q115.49-22 115.49-29.15L115.49-29.15Q115.49-31.4 115.74-32.3L115.74-32.3Q116.04-33 116.71-33.38 117.39-33.75 118.14-33.75L118.14-33.75Q118.89-33.75 119.46-33.5 120.04-33.25 120.24-32.7L120.24-32.7Q120.44-32.1 120.51-31.53 120.59-30.95 120.59-29.9L120.59-29.9Q120.59-27.85 120.44-25.95L120.44-25.95Q120.34-23.65 120.34-22.6L120.34-22.6Q119.94-13.8 119.94-7.75L119.94-7.75Z" opacity="1" transform="matrix(1,0,0,1,0,0)" fill="#000000" class="wordmark-text-0" data-fill-palette-color="primary" id="text-0"></path></svg></g></svg></g></svg></g></svg></g><g transform="matrix(1,0,0,1,282.11976439257455,0)"><svg viewBox="0 0 94.78057040788393 92.62371567483872" height="92.62371567483872" width="94.78057040788393"><g><svg xmlns="http://www.w3.org/2000/svg" xmlns:xlink="http://www.w3.org/1999/xlink" version="1.0" x="0" y="0" viewBox="1.116 1.6570000000000018 47.766999999999996 46.67999999999999" enable-background="new 0 0 50 50" xml:space="preserve" height="92.62371567483872" width="94.78057040788393" class="icon-icon-0" data-fill-palette-color="accent" id="icon-0"><g fill="#c1c1c1" data-fill-palette-color="accent"><g fill="#c1c1c1" data-fill-palette-color="accent"><path fill="none" d="M26 26v9.172c3-0.275 5.82-1.163 8.643-2.305C35.404 30.368 35.847 28 35.847 26H26z"></path><path fill="none" d="M38.019 26c0 2-0.314 3.585-0.95 5.84 3.634-1.682 6.874-3.646 9.056-5.072C46.136 26.513 46.163 26 46.163 26H38.019z"></path><path fill="none" d="M37.888 24h8.275c0-2-0.457-4.783-1.43-7.247-0.973-2.467-2.268-4.435-3.893-5.992-1.133 0.813-2.92 1.767-5.285 2.908C37.11 17.462 37.888 21 37.888 24z"></path><path fill="none" d="M28.093 4.127C27.929 4.03 27.511 4 26.858 4H26v10.111c3-0.226 5.703-0.738 6.965-1.556C31.605 9.247 30.005 6.466 28.093 4.127z"></path><path fill="none" d="M39.479 9.312c-2.693-2.238-5.611-3.796-8.691-4.702 1.584 2.038 2.982 4.506 4.15 7.394C37.47 10.674 38.958 9.765 39.479 9.312z"></path><path fill="none" d="M38.02 42.071c-1.94 1.366-3.972 2.321-6.016 2.954C34.329 44.423 36.327 43.43 38.02 42.071z"></path><path fill="none" d="M24 26h-9.663c0 1 0.061 1.563 0.231 2.583L24 29.986V26z"></path><path fill="none" d="M4.082 26c0 0 0.032 0.692 0.058 1.041l8.389 1.232C12.418 27.45 12.358 27 12.358 26H4.082z"></path><path fill="none" d="M18.266 33.789C19.962 34.791 22 35.225 24 35.258v-5.084L18.266 33.789z"></path><path fill="none" d="M35.13 18.699c-0.484-2.11-1.03-3.562-1.483-4.307C30.598 15.627 28 16.253 26 16.253V24h9.847C35.847 22 35.585 20.774 35.13 18.699z"></path><path fill="none" d="M19.14 4.738c-3.537 0.904-6.328 2.432-8.436 4.573 0.616 0.549 2.143 1.395 4.605 2.561C16.315 9.312 17.582 6.94 19.14 4.738z"></path><path fill="none" d="M13.203 18.34c0.517-2.139 1.037-3.683 1.555-4.656-0.745-0.359-1.459-0.68-2.207-1.005-0.71-0.323-1.36-0.646-1.945-0.971-0.581-0.324-1.002-0.634-1.331-0.958C6.228 13.928 4.443 18 3.927 24h8.432C12.391 22 12.681 20.479 13.203 18.34z"></path><path fill="none" d="M26 46.226l2.166-0.128c0.064-0.081 0.108-0.182 0.177-0.271C27.563 45.939 27 46.016 26 46.059V46.226z"></path><path fill="none" d="M21.891 46.098L24 46.226V46.1c-1-0.012-1.481-0.053-2.204-0.115C21.822 46.021 21.865 46.062 21.891 46.098z"></path><path fill="none" d="M14.337 24H24v-7.747c-2 0-4.378-0.637-7.558-1.87C15.018 17.787 14.337 21 14.337 24z"></path><path fill="none" d="M20.985 13.693C22.25 13.982 23 14.111 24 14.111V4h-0.675c-0.293 0-0.521-0.006-0.749 0.03-0.194 0.029-0.421 0.062-0.65 0.094-1.945 2.66-3.55 5.51-4.782 8.561C18.439 13.079 19.721 13.433 20.985 13.693z"></path><path fill="#000000" d="M38.02 42.071c-1.692 1.358-3.69 2.352-6.016 2.954-1.194 0.369-2.392 0.628-3.576 0.801-0.067 0.09-2.407 0.232-2.407 0.232-1 0.039-1 0.052-2.001 0.041 0 0-2.157-0.078-2.184-0.115-6.396-0.561-11.267-2.897-11.267-2.897l-0.027 0.075c4.421 3.444 9.295 5.175 14.599 5.175 4.019 0 7.815-0.942 11.353-2.824 3.533-1.915 6.39-4.639 8.599-8.271 1.763-2.923 2.788-6.239 3.099-9.95C45.677 34.603 42.048 39.234 38.02 42.071z" data-fill-palette-color="accent"></path><path fill="#000000" d="M4.082 26h8.276c0 1 0.06 1.454 0.17 2.277l2.075 0.303c-0.171-1.02-0.267-1.58-0.267-2.58H24v3.986l0.242 0.035L24 30.174v5.084c1 0.011 1-0.018 2-0.086V26h9.847c0 2-0.387 4.368-1.146 6.867 0.803-0.324 1.594-0.672 2.368-1.031 0.636-2.254 0.95-3.836 0.95-5.836h8.145c0 0-0.027 0.517-0.039 0.771 0.938-0.612 1.674-1.118 2.164-1.466 0.002-0.22 0.016-0.432 0.014-0.653-0.063-4.603-1.168-8.628-3.34-12.1-2.143-3.47-4.994-6.165-8.531-8.039-3.539-1.915-7.27-2.856-11.127-2.856-2.66 0-5.323 0.484-8.015 1.426-2.691 0.971-5.223 2.432-7.559 4.381-2.366 1.98-4.25 4.31-5.648 7.07-1.426 2.724-2.202 5.904-2.334 9.505-0.016 0.911 0.007 1.799 0.066 2.666l2.325 0.336C4.114 26.692 4.082 26 4.082 26zM44.733 16.753c0.973 2.464 1.43 5.247 1.43 7.247h-8.275c0-3-0.777-6.533-2.332-10.326 2.365-1.142 4.152-2.111 5.285-2.924C42.466 12.308 43.761 14.286 44.733 16.753zM39.479 9.312c-0.521 0.453-2.01 1.362-4.541 2.691-1.168-2.888-2.566-5.355-4.15-7.394C33.868 5.516 36.786 7.073 39.479 9.312zM26 4h0.858c0.652 0 1.07 0.03 1.234 0.127 1.912 2.339 3.513 5.12 4.872 8.429C31.703 13.373 29 13.886 26 14.111V4zM26 16.253c2 0 4.598-0.616 7.646-1.851 0.453 0.745 0.971 2.187 1.455 4.297C35.557 20.774 35.847 22 35.847 24H26V16.253zM24 24h-9.663c0-3 0.681-6.213 2.105-9.617 3.18 1.233 5.558 1.87 7.558 1.87V24zM22.576 4.03C22.805 3.994 23.032 4 23.325 4H24v10.111c-1 0-1.75-0.129-3.015-0.418-1.264-0.261-2.545-0.616-3.841-1.01 1.232-3.051 2.828-5.899 4.773-8.56C22.146 4.092 22.382 4.06 22.576 4.03zM19.14 4.738c-1.558 2.202-2.824 4.573-3.83 7.134-2.463-1.166-3.989-2.012-4.605-2.561C12.812 7.17 15.603 5.643 19.14 4.738zM9.274 10.75c0.329 0.324 0.75 0.627 1.331 0.951 0.585 0.325 1.235 0.654 1.945 0.978 0.748 0.325 1.462 0.652 2.207 1.013-0.518 0.973-1.038 2.509-1.555 4.648C12.681 20.478 12.391 22 12.358 24H3.927C4.443 18 6.228 13.929 9.274 10.75z" data-fill-palette-color="accent"></path></g><path fill="#000000" d="M32.507 3.195c0 1.966-3.324 3.561-7.426 3.561s-7.427-1.595-7.427-3.561c3.459-0.916 3.53-0.813 7.632-0.813C29.386 2.382 27.216 3.094 32.507 3.195z" data-fill-palette-color="accent"></path><g fill="#c1c1c1" data-fill-palette-color="accent"><path fill="#000000" d="M14.631 33.999l7.066-3.067L1.116 27.43l7.217 19.785 1.326-6.839c0 0 22.797 14.882 38.9-13.301l0.324-2.162C43.483 30.109 28.394 42.477 14.631 33.999z" data-fill-palette-color="accent"></path></g></g></svg></g></svg></g></svg></g></svg></g><g><path d="M245.816 0c68.262 0 123.6 55.338 123.6 123.6 0 68.262-55.338 123.6-123.6 123.6-56.046 0-103.379-37.303-118.526-88.435l2.046 0c15.085 50.035 61.527 86.475 116.48 86.475 67.18 0 121.64-54.46 121.64-121.64 0-67.18-54.46-121.64-121.64-121.64-54.953 0-101.395 36.44-116.48 86.475l-2.046 0c15.147-51.132 62.48-88.435 118.526-88.435z" fill="#000000" stroke="transparent" data-fill-palette-color="tertiary"></path></g></svg></g><defs></defs></svg><rect width="395.52" height="247.2" fill="none" stroke="none" visibility="hidden"></rect></g></svg></g></svg>